<svg width="348" height="316" viewBox="0 0 348 316" fill="none" xmlns="http://www.w3.org/2000/svg">
<path d="M59.026 244.068C60.046 243.06 61.288 242.244 62.752 241.62C64.228 240.996 65.914 240.684 67.81 240.684C69.718 240.684 71.458 241.014 73.03 241.674C74.614 242.322 75.97 243.234 77.098 244.41C78.238 245.586 79.12 246.99 79.744 248.622C80.368 250.242 80.68 252.03 80.68 253.986C80.68 255.918 80.386 257.7 79.798 259.332C79.21 260.964 78.37 262.368 77.278 263.544C76.198 264.72 74.884 265.638 73.336 266.298C71.788 266.958 70.054 267.288 68.134 267.288C65.986 267.288 64.132 266.94 62.572 266.244C61.024 265.548 59.722 264.546 58.666 263.238L60.592 261.168C60.784 260.964 61.012 260.862 61.276 260.862C61.54 260.862 61.81 260.982 62.086 261.222C62.482 261.582 62.878 261.888 63.274 262.14C63.682 262.38 64.108 262.578 64.552 262.734C65.008 262.89 65.5 263.004 66.028 263.076C66.568 263.148 67.168 263.184 67.828 263.184C68.824 263.184 69.76 263.016 70.636 262.68C71.524 262.344 72.31 261.852 72.994 261.204C73.69 260.556 74.266 259.764 74.722 258.828C75.19 257.88 75.496 256.8 75.64 255.588H63.58V251.988H75.586C75.418 250.848 75.112 249.834 74.668 248.946C74.224 248.046 73.666 247.29 72.994 246.678C72.322 246.066 71.548 245.604 70.672 245.292C69.808 244.968 68.866 244.806 67.846 244.806C66.814 244.806 65.962 244.914 65.29 245.13C64.618 245.346 64.054 245.58 63.598 245.832C63.154 246.084 62.782 246.318 62.482 246.534C62.182 246.75 61.9 246.858 61.636 246.858C61.372 246.858 61.162 246.804 61.006 246.696C60.862 246.588 60.736 246.462 60.628 246.318L59.026 244.068ZM94.9605 249.702C95.1765 249.354 95.4705 249.072 95.8425 248.856C96.2145 248.64 96.6105 248.532 97.0305 248.532H100.522L96.2205 255.39C95.9205 255.87 95.6145 256.26 95.3025 256.56C94.9905 256.848 94.6125 257.076 94.1685 257.244C94.7685 257.424 95.2605 257.694 95.6445 258.054C96.0285 258.402 96.3765 258.846 96.6885 259.386L101.008 267H97.9305C97.1505 267 96.5445 266.868 96.1125 266.604C95.6805 266.34 95.3145 265.962 95.0145 265.47L92.2965 260.358C92.0565 259.914 91.7445 259.584 91.3605 259.368C90.9885 259.152 90.5505 259.044 90.0465 259.044H88.3725V267H83.9265V248.532H88.3725V256.146H89.8125C90.3165 256.146 90.7185 256.056 91.0185 255.876C91.3305 255.684 91.5945 255.396 91.8105 255.012L94.9605 249.702ZM116.035 252.438C115.903 252.606 115.771 252.738 115.639 252.834C115.519 252.93 115.339 252.978 115.099 252.978C114.871 252.978 114.649 252.912 114.433 252.78C114.217 252.636 113.959 252.48 113.659 252.312C113.359 252.132 112.999 251.976 112.579 251.844C112.171 251.7 111.661 251.628 111.049 251.628C110.269 251.628 109.585 251.772 108.997 252.06C108.409 252.336 107.917 252.738 107.521 253.266C107.137 253.794 106.849 254.436 106.657 255.192C106.465 255.936 106.369 256.782 106.369 257.73C106.369 258.714 106.471 259.59 106.675 260.358C106.891 261.126 107.197 261.774 107.593 262.302C107.989 262.818 108.469 263.214 109.033 263.49C109.597 263.754 110.233 263.886 110.941 263.886C111.649 263.886 112.219 263.802 112.651 263.634C113.095 263.454 113.467 263.262 113.767 263.058C114.067 262.842 114.325 262.65 114.541 262.482C114.769 262.302 115.021 262.212 115.297 262.212C115.657 262.212 115.927 262.35 116.107 262.626L117.385 264.246C116.893 264.822 116.359 265.308 115.783 265.704C115.207 266.088 114.607 266.4 113.983 266.64C113.371 266.868 112.735 267.03 112.075 267.126C111.427 267.222 110.779 267.27 110.131 267.27C108.991 267.27 107.917 267.06 106.909 266.64C105.901 266.208 105.019 265.584 104.263 264.768C103.507 263.952 102.907 262.956 102.463 261.78C102.031 260.592 101.815 259.242 101.815 257.73C101.815 256.374 102.007 255.12 102.391 253.968C102.787 252.804 103.363 251.802 104.119 250.962C104.875 250.11 105.811 249.444 106.927 248.964C108.043 248.484 109.327 248.244 110.779 248.244C112.159 248.244 113.365 248.466 114.397 248.91C115.441 249.354 116.377 249.99 117.205 250.818L116.035 252.438ZM136.265 267H131.819V251.826H124.619V267H120.173V248.532H136.265V267ZM152.567 255.642C152.567 255.066 152.483 254.526 152.315 254.022C152.159 253.506 151.919 253.056 151.595 252.672C151.271 252.288 150.857 251.988 150.353 251.772C149.861 251.544 149.285 251.43 148.625 251.43C147.341 251.43 146.327 251.796 145.583 252.528C144.851 253.26 144.383 254.298 144.179 255.642H152.567ZM144.089 258.324C144.161 259.272 144.329 260.094 144.593 260.79C144.857 261.474 145.205 262.044 145.637 262.5C146.069 262.944 146.579 263.28 147.167 263.508C147.767 263.724 148.427 263.832 149.147 263.832C149.867 263.832 150.485 263.748 151.001 263.58C151.529 263.412 151.985 263.226 152.369 263.022C152.765 262.818 153.107 262.632 153.395 262.464C153.695 262.296 153.983 262.212 154.259 262.212C154.631 262.212 154.907 262.35 155.087 262.626L156.365 264.246C155.873 264.822 155.321 265.308 154.709 265.704C154.097 266.088 153.455 266.4 152.783 266.64C152.123 266.868 151.445 267.03 150.749 267.126C150.065 267.222 149.399 267.27 148.751 267.27C147.467 267.27 146.273 267.06 145.169 266.64C144.065 266.208 143.105 265.578 142.289 264.75C141.473 263.91 140.831 262.878 140.363 261.654C139.895 260.418 139.661 258.99 139.661 257.37C139.661 256.11 139.865 254.928 140.273 253.824C140.681 252.708 141.263 251.742 142.019 250.926C142.787 250.098 143.717 249.444 144.809 248.964C145.913 248.484 147.155 248.244 148.535 248.244C149.699 248.244 150.773 248.43 151.757 248.802C152.741 249.174 153.587 249.72 154.295 250.44C155.003 251.148 155.555 252.024 155.951 253.068C156.359 254.1 156.563 255.282 156.563 256.614C156.563 257.286 156.491 257.742 156.347 257.982C156.203 258.21 155.927 258.324 155.519 258.324H144.089ZM164.345 262.212C164.849 262.824 165.395 263.256 165.983 263.508C166.583 263.76 167.231 263.886 167.927 263.886C168.599 263.886 169.205 263.76 169.745 263.508C170.285 263.256 170.741 262.872 171.113 262.356C171.497 261.84 171.791 261.192 171.995 260.412C172.199 259.62 172.301 258.69 172.301 257.622C172.301 256.542 172.211 255.63 172.031 254.886C171.863 254.13 171.617 253.518 171.293 253.05C170.969 252.582 170.573 252.24 170.105 252.024C169.649 251.808 169.127 251.7 168.539 251.7C167.615 251.7 166.829 251.898 166.181 252.294C165.533 252.678 164.921 253.224 164.345 253.932V262.212ZM164.111 251.052C164.867 250.2 165.725 249.51 166.685 248.982C167.645 248.454 168.773 248.19 170.069 248.19C171.077 248.19 171.995 248.4 172.823 248.82C173.663 249.24 174.383 249.852 174.983 250.656C175.595 251.448 176.063 252.432 176.387 253.608C176.723 254.772 176.891 256.11 176.891 257.622C176.891 259.002 176.705 260.28 176.333 261.456C175.961 262.632 175.427 263.652 174.731 264.516C174.047 265.38 173.213 266.058 172.229 266.55C171.257 267.03 170.165 267.27 168.953 267.27C167.921 267.27 167.039 267.114 166.307 266.802C165.575 266.478 164.921 266.034 164.345 265.47V273.03H159.899V248.532H162.617C163.193 248.532 163.571 248.802 163.751 249.342L164.111 251.052ZM195.813 251.826H189.225V267H184.779V251.826H178.209V248.532H195.813V251.826ZM214.522 248.532V267H210.076V258.828H202.876V267H198.43V248.532H202.876V255.534H210.076V248.532H214.522ZM227.098 248.244C228.466 248.244 229.708 248.466 230.824 248.91C231.952 249.354 232.912 249.984 233.704 250.8C234.508 251.616 235.126 252.612 235.558 253.788C235.99 254.964 236.206 256.278 236.206 257.73C236.206 259.194 235.99 260.514 235.558 261.69C235.126 262.866 234.508 263.868 233.704 264.696C232.912 265.524 231.952 266.16 230.824 266.604C229.708 267.048 228.466 267.27 227.098 267.27C225.718 267.27 224.464 267.048 223.336 266.604C222.208 266.16 221.242 265.524 220.438 264.696C219.646 263.868 219.028 262.866 218.584 261.69C218.152 260.514 217.936 259.194 217.936 257.73C217.936 256.278 218.152 254.964 218.584 253.788C219.028 252.612 219.646 251.616 220.438 250.8C221.242 249.984 222.208 249.354 223.336 248.91C224.464 248.466 225.718 248.244 227.098 248.244ZM227.098 263.85C228.634 263.85 229.768 263.334 230.5 262.302C231.244 261.27 231.616 259.758 231.616 257.766C231.616 255.774 231.244 254.256 230.5 253.212C229.768 252.168 228.634 251.646 227.098 251.646C225.538 251.646 224.38 252.174 223.624 253.23C222.88 254.274 222.508 255.786 222.508 257.766C222.508 259.746 222.88 261.258 223.624 262.302C224.38 263.334 225.538 263.85 227.098 263.85ZM252.828 252.438C252.696 252.606 252.564 252.738 252.432 252.834C252.312 252.93 252.132 252.978 251.892 252.978C251.664 252.978 251.442 252.912 251.226 252.78C251.01 252.636 250.752 252.48 250.452 252.312C250.152 252.132 249.792 251.976 249.372 251.844C248.964 251.7 248.454 251.628 247.842 251.628C247.062 251.628 246.378 251.772 245.79 252.06C245.202 252.336 244.71 252.738 244.314 253.266C243.93 253.794 243.642 254.436 243.45 255.192C243.258 255.936 243.162 256.782 243.162 257.73C243.162 258.714 243.264 259.59 243.468 260.358C243.684 261.126 243.99 261.774 244.386 262.302C244.782 262.818 245.262 263.214 245.826 263.49C246.39 263.754 247.026 263.886 247.734 263.886C248.442 263.886 249.012 263.802 249.444 263.634C249.888 263.454 250.26 263.262 250.56 263.058C250.86 262.842 251.118 262.65 251.334 262.482C251.562 262.302 251.814 262.212 252.09 262.212C252.45 262.212 252.72 262.35 252.9 262.626L254.178 264.246C253.686 264.822 253.152 265.308 252.576 265.704C252 266.088 251.4 266.4 250.776 266.64C250.164 266.868 249.528 267.03 248.868 267.126C248.22 267.222 247.572 267.27 246.924 267.27C245.784 267.27 244.71 267.06 243.702 266.64C242.694 266.208 241.812 265.584 241.056 264.768C240.3 263.952 239.7 262.956 239.256 261.78C238.824 260.592 238.608 259.242 238.608 257.73C238.608 256.374 238.8 255.12 239.184 253.968C239.58 252.804 240.156 251.802 240.912 250.962C241.668 250.11 242.604 249.444 243.72 248.964C244.836 248.484 246.12 248.244 247.572 248.244C248.952 248.244 250.158 248.466 251.19 248.91C252.234 249.354 253.17 249.99 253.998 250.818L252.828 252.438ZM272.806 251.826H266.218V267H261.772V251.826H255.202V248.532H272.806V251.826ZM282.965 263.814C283.973 263.814 284.723 263.562 285.215 263.058C285.719 262.554 285.971 261.906 285.971 261.114C285.971 260.778 285.911 260.454 285.791 260.142C285.683 259.83 285.509 259.554 285.269 259.314C285.029 259.074 284.717 258.888 284.333 258.756C283.949 258.612 283.487 258.54 282.947 258.54H279.653V263.814H282.965ZM282.929 255.372C284.213 255.372 285.299 255.528 286.187 255.84C287.075 256.152 287.795 256.572 288.347 257.1C288.899 257.628 289.295 258.24 289.535 258.936C289.787 259.62 289.913 260.34 289.913 261.096C289.913 261.96 289.757 262.758 289.445 263.49C289.145 264.21 288.695 264.834 288.095 265.362C287.507 265.878 286.781 266.28 285.917 266.568C285.065 266.856 284.087 267 282.983 267H275.423V248.532H279.653V255.372H282.929Z" fill="black"/>
<g clip-path="url(#clip0_35816_74)">
<path d="M174 147.189C182.355 147.189 201.998 137.591 201.998 114.594C201.998 111.386 201.916 108.288 201.639 105.36C201.184 99.5974 199.948 94.4908 196.869 90.5769C192.921 85.2515 186.012 82 174 82C161.99 82 155.082 85.2505 151.134 90.5739C148.053 94.4881 146.816 99.5967 146.361 105.361C146.084 108.288 146.002 111.387 146.002 114.594C146.002 137.591 165.645 147.189 174 147.189ZM163.622 92.7788C164.232 91.712 165.401 91.0486 166.672 91.0473C168.138 91.0473 169.392 91.915 169.906 93.1378H178.09C178.263 92.7252 178.521 92.3464 178.859 92.0228C179.515 91.3947 180.389 91.0479 181.317 91.0469C182.593 91.0466 183.761 91.7064 184.373 92.7692C184.409 92.8313 184.408 92.906 184.37 92.9672C184.332 93.0284 184.264 93.0657 184.19 93.0657L181.086 93.0707C181.031 93.1956 180.927 93.5424 180.928 94.3688C180.93 95.1952 181.035 95.5416 181.091 95.6663L184.195 95.6616C184.269 95.662 184.337 95.6993 184.375 95.7602C184.413 95.821 184.414 95.8963 184.379 95.9585C183.768 97.0246 182.599 97.6887 181.328 97.69L181.323 97.6893C179.862 97.6893 178.608 96.8223 178.094 95.5988H169.91C169.738 96.0114 169.48 96.3905 169.142 96.7138C168.486 97.3419 167.612 97.689 166.683 97.6907C166.683 97.6903 166.677 97.6907 166.677 97.6907C165.408 97.6907 164.239 97.0309 163.627 95.9681C163.591 95.9059 163.593 95.8306 163.63 95.7697C163.667 95.7089 163.736 95.6709 163.811 95.6709L166.914 95.6663C166.969 95.5416 167.073 95.1949 167.071 94.3685C167.07 93.5417 166.964 93.1953 166.909 93.0707L163.805 93.0756V93.076C163.731 93.0753 163.663 93.0379 163.625 92.9771C163.588 92.9163 163.587 92.8416 163.622 92.7788ZM150.168 109.608C150.49 110.282 151.861 112.871 153.982 113.113C156.42 113.392 160.467 104.87 174 104.85C187.532 104.871 191.58 113.392 194.018 113.113C196.139 112.87 197.51 110.281 197.832 109.608C197.898 111.258 197.922 112.928 197.922 114.594C197.922 125.835 192.722 132.8 188.36 136.664C182.863 141.532 176.761 143.299 174 143.299C171.239 143.299 165.137 141.532 159.64 136.664C155.278 132.8 150.078 125.835 150.078 114.594C150.078 112.928 150.102 111.258 150.168 109.608Z" fill="black"/>
<path d="M225.978 180.617C224.549 172.133 221.607 161.205 215.704 157.321C211.675 154.669 197.617 147.5 191.614 144.438L191.503 144.383C190.817 144.033 189.979 144.103 189.367 144.561C186.221 146.919 182.775 148.507 179.125 149.283C178.48 149.42 177.951 149.857 177.717 150.447L174 159.799L170.283 150.447C170.048 149.857 169.519 149.42 168.874 149.283C165.224 148.507 161.778 146.919 158.633 144.561C158.02 144.103 157.182 144.032 156.496 144.383C150.562 147.409 136.328 154.727 132.313 157.31C125.518 161.679 122.548 177.492 122.021 180.617C121.969 180.927 121.999 181.244 122.109 181.541C122.308 182.076 126.512 192.44 152.784 196.221C155.081 200.053 158.511 203.239 162.612 205.311C166.097 207.071 170.044 208.001 174.028 208.001C175.588 208.001 177.15 207.858 178.671 207.575C183.929 206.599 188.784 203.932 192.343 200.065C193.437 198.877 194.394 197.587 195.208 196.222C221.487 192.441 225.692 182.076 225.89 181.541C226.001 181.244 226.031 180.927 225.978 180.617ZM194.896 185.81C194.64 190.248 192.797 194.529 189.723 197.867C186.685 201.169 182.526 203.467 178.005 204.307C176.693 204.551 175.36 204.671 174.028 204.671C170.637 204.671 167.255 203.889 164.244 202.368C160.206 200.328 156.919 197.025 154.998 193.067C153.002 188.953 152.543 184.22 153.702 179.823C154.822 175.572 157.44 171.739 161.04 169.021C164.713 166.248 169.317 164.719 173.999 164.719C176.093 164.719 178.184 165.018 180.183 165.61C184.56 166.904 188.425 169.595 191.076 173.159C193.802 176.825 195.155 181.322 194.896 185.81Z" fill="black"/>
<path d="M177.283 184.696C179.239 185.066 181.185 185.622 183.009 186.394C184.772 187.141 186.351 188.194 187.99 189.148C188.103 189.215 188.217 189.279 188.331 189.343C188.85 187.884 189.135 186.323 189.135 184.696C189.135 183.07 188.85 181.508 188.331 180.05C186.651 181.006 185.055 182.096 183.275 182.884C181.378 183.723 179.332 184.309 177.283 184.696Z" fill="black"/>
<path d="M187.99 189.148C187.627 188.937 188.186 189.263 187.99 189.148V189.148Z" fill="black"/>
<path d="M164.991 186.394C166.816 185.622 168.76 185.066 170.717 184.696C168.638 184.304 166.558 183.707 164.637 182.845C162.892 182.061 161.321 180.99 159.669 180.049C159.15 181.508 158.865 183.07 158.865 184.696C158.865 186.323 159.15 187.885 159.669 189.344C159.783 189.279 159.897 189.215 160.01 189.148C161.649 188.194 163.229 187.141 164.991 186.394Z" fill="black"/>
<path d="M160.01 189.148C159.815 189.263 160.373 188.937 160.01 189.148V189.148Z" fill="black"/>
<path d="M176.782 170.497C176.832 172.387 177.049 174.274 176.885 176.164C176.707 178.21 176.22 180.262 175.528 182.204C176.955 180.68 178.585 179.274 180.36 178.125C182.01 177.057 183.847 176.31 185.602 175.423C183.393 172.906 180.301 171.122 176.782 170.497Z" fill="black"/>
<path d="M172.472 182.203C171.78 180.262 171.293 178.21 171.115 176.164C170.951 174.274 171.169 172.387 171.218 170.497C167.699 171.121 164.608 172.905 162.398 175.422C164.183 176.324 166.049 177.082 167.721 178.177C169.462 179.318 171.065 180.702 172.472 182.203Z" fill="black"/>
<path d="M171.115 193.229C171.293 191.184 171.778 189.13 172.472 187.19C171.044 188.713 169.414 190.12 167.639 191.268C165.99 192.337 164.154 193.084 162.398 193.971C164.607 196.487 167.699 198.271 171.218 198.896C171.168 197.006 170.951 195.119 171.115 193.229Z" fill="black"/>
<path d="M175.528 187.19C176.223 189.13 176.708 191.184 176.885 193.229C177.049 195.119 176.832 197.006 176.782 198.896C180.301 198.272 183.393 196.487 185.602 193.971C183.818 193.068 181.952 192.311 180.28 191.216C178.538 190.075 176.936 188.691 175.528 187.19Z" fill="black"/>
</g>
<defs>
<clipPath id="clip0_35816_74">
<rect width="132" height="126" fill="white" transform="translate(108 82)"/>
</clipPath>
</defs>
</svg>
