<svg width="348" height="316" viewBox="0 0 348 316" fill="none" xmlns="http://www.w3.org/2000/svg">
<path d="M71.72 252.986C71.72 254.894 71.402 256.664 70.766 258.296C70.142 259.916 69.254 261.32 68.102 262.508C66.95 263.696 65.564 264.626 63.944 265.298C62.324 265.958 60.524 266.288 58.544 266.288C56.576 266.288 54.782 265.958 53.162 265.298C51.542 264.626 50.15 263.696 48.986 262.508C47.834 261.32 46.94 259.916 46.304 258.296C45.668 256.664 45.35 254.894 45.35 252.986C45.35 251.078 45.668 249.314 46.304 247.694C46.94 246.062 47.834 244.652 48.986 243.464C50.15 242.276 51.542 241.352 53.162 240.692C54.782 240.02 56.576 239.684 58.544 239.684C59.864 239.684 61.106 239.84 62.27 240.152C63.434 240.452 64.502 240.884 65.474 241.448C66.446 242 67.316 242.678 68.084 243.482C68.864 244.274 69.524 245.162 70.064 246.146C70.604 247.13 71.012 248.198 71.288 249.35C71.576 250.502 71.72 251.714 71.72 252.986ZM66.77 252.986C66.77 251.558 66.578 250.28 66.194 249.152C65.81 248.012 65.264 247.046 64.556 246.254C63.848 245.462 62.984 244.856 61.964 244.436C60.956 244.016 59.816 243.806 58.544 243.806C57.272 243.806 56.126 244.016 55.106 244.436C54.098 244.856 53.234 245.462 52.514 246.254C51.806 247.046 51.26 248.012 50.876 249.152C50.492 250.28 50.3 251.558 50.3 252.986C50.3 254.414 50.492 255.698 50.876 256.838C51.26 257.966 51.806 258.926 52.514 259.718C53.234 260.498 54.098 261.098 55.106 261.518C56.126 261.938 57.272 262.148 58.544 262.148C59.816 262.148 60.956 261.938 61.964 261.518C62.984 261.098 63.848 260.498 64.556 259.718C65.264 258.926 65.81 257.966 66.194 256.838C66.578 255.698 66.77 254.414 66.77 252.986ZM91.0458 266H86.5998V250.826H79.3998V266H74.9538V247.532H91.0458V266ZM107.348 254.642C107.348 254.066 107.264 253.526 107.096 253.022C106.94 252.506 106.7 252.056 106.376 251.672C106.052 251.288 105.638 250.988 105.134 250.772C104.642 250.544 104.066 250.43 103.406 250.43C102.122 250.43 101.108 250.796 100.364 251.528C99.6319 252.26 99.1639 253.298 98.9599 254.642H107.348ZM98.8699 257.324C98.9419 258.272 99.1099 259.094 99.3739 259.79C99.6379 260.474 99.9859 261.044 100.418 261.5C100.85 261.944 101.36 262.28 101.948 262.508C102.548 262.724 103.208 262.832 103.928 262.832C104.648 262.832 105.266 262.748 105.782 262.58C106.31 262.412 106.766 262.226 107.15 262.022C107.546 261.818 107.888 261.632 108.176 261.464C108.476 261.296 108.764 261.212 109.04 261.212C109.412 261.212 109.688 261.35 109.868 261.626L111.146 263.246C110.654 263.822 110.102 264.308 109.49 264.704C108.878 265.088 108.236 265.4 107.564 265.64C106.904 265.868 106.226 266.03 105.53 266.126C104.846 266.222 104.18 266.27 103.532 266.27C102.248 266.27 101.054 266.06 99.9499 265.64C98.8459 265.208 97.8859 264.578 97.0699 263.75C96.2539 262.91 95.6119 261.878 95.1439 260.654C94.6759 259.418 94.4419 257.99 94.4419 256.37C94.4419 255.11 94.6459 253.928 95.0539 252.824C95.4619 251.708 96.0439 250.742 96.7999 249.926C97.5679 249.098 98.4979 248.444 99.5899 247.964C100.694 247.484 101.936 247.244 103.316 247.244C104.48 247.244 105.554 247.43 106.538 247.802C107.522 248.174 108.368 248.72 109.076 249.44C109.784 250.148 110.336 251.024 110.732 252.068C111.14 253.1 111.344 254.282 111.344 255.614C111.344 256.286 111.272 256.742 111.128 256.982C110.984 257.21 110.708 257.324 110.3 257.324H98.8699ZM119.126 261.212C119.63 261.824 120.176 262.256 120.764 262.508C121.364 262.76 122.012 262.886 122.708 262.886C123.38 262.886 123.986 262.76 124.526 262.508C125.066 262.256 125.522 261.872 125.894 261.356C126.278 260.84 126.572 260.192 126.776 259.412C126.98 258.62 127.082 257.69 127.082 256.622C127.082 255.542 126.992 254.63 126.812 253.886C126.644 253.13 126.398 252.518 126.074 252.05C125.75 251.582 125.354 251.24 124.886 251.024C124.43 250.808 123.908 250.7 123.32 250.7C122.396 250.7 121.61 250.898 120.962 251.294C120.314 251.678 119.702 252.224 119.126 252.932V261.212ZM118.892 250.052C119.648 249.2 120.506 248.51 121.466 247.982C122.426 247.454 123.554 247.19 124.85 247.19C125.858 247.19 126.776 247.4 127.604 247.82C128.444 248.24 129.164 248.852 129.764 249.656C130.376 250.448 130.844 251.432 131.168 252.608C131.504 253.772 131.672 255.11 131.672 256.622C131.672 258.002 131.486 259.28 131.114 260.456C130.742 261.632 130.208 262.652 129.512 263.516C128.828 264.38 127.994 265.058 127.01 265.55C126.038 266.03 124.946 266.27 123.734 266.27C122.702 266.27 121.82 266.114 121.088 265.802C120.356 265.478 119.702 265.034 119.126 264.47V272.03H114.68V247.532H117.398C117.974 247.532 118.352 247.802 118.532 248.342L118.892 250.052ZM144.862 258.116C143.578 258.176 142.498 258.29 141.622 258.458C140.746 258.614 140.044 258.818 139.516 259.07C138.988 259.322 138.61 259.616 138.382 259.952C138.154 260.288 138.04 260.654 138.04 261.05C138.04 261.83 138.268 262.388 138.724 262.724C139.192 263.06 139.798 263.228 140.542 263.228C141.454 263.228 142.24 263.066 142.9 262.742C143.572 262.406 144.226 261.902 144.862 261.23V258.116ZM134.674 250.106C136.798 248.162 139.354 247.19 142.342 247.19C143.422 247.19 144.388 247.37 145.24 247.73C146.092 248.078 146.812 248.57 147.4 249.206C147.988 249.83 148.432 250.58 148.732 251.456C149.044 252.332 149.2 253.292 149.2 254.336V266H147.184C146.764 266 146.44 265.94 146.212 265.82C145.984 265.688 145.804 265.43 145.672 265.046L145.276 263.714C144.808 264.134 144.352 264.506 143.908 264.83C143.464 265.142 143.002 265.406 142.522 265.622C142.042 265.838 141.526 266 140.974 266.108C140.434 266.228 139.834 266.288 139.174 266.288C138.394 266.288 137.674 266.186 137.014 265.982C136.354 265.766 135.784 265.448 135.304 265.028C134.824 264.608 134.452 264.086 134.188 263.462C133.924 262.838 133.792 262.112 133.792 261.284C133.792 260.816 133.87 260.354 134.026 259.898C134.182 259.43 134.434 258.986 134.782 258.566C135.142 258.146 135.604 257.75 136.168 257.378C136.732 257.006 137.422 256.682 138.238 256.406C139.066 256.13 140.026 255.908 141.118 255.74C142.21 255.56 143.458 255.452 144.862 255.416V254.336C144.862 253.1 144.598 252.188 144.07 251.6C143.542 251 142.78 250.7 141.784 250.7C141.064 250.7 140.464 250.784 139.984 250.952C139.516 251.12 139.102 251.312 138.742 251.528C138.382 251.732 138.052 251.918 137.752 252.086C137.464 252.254 137.14 252.338 136.78 252.338C136.468 252.338 136.204 252.26 135.988 252.104C135.772 251.936 135.598 251.744 135.466 251.528L134.674 250.106ZM168.911 250.826H162.323V266H157.877V250.826H151.307V247.532H168.911V250.826ZM188.124 247.532V266H183.678V255.218C183.678 254.942 183.69 254.642 183.714 254.318C183.75 253.982 183.792 253.646 183.84 253.31C183.6 253.862 183.336 254.348 183.048 254.768C183.024 254.792 182.904 254.96 182.688 255.272C182.472 255.572 182.19 255.962 181.842 256.442C181.506 256.922 181.122 257.468 180.69 258.08C180.258 258.68 179.82 259.292 179.376 259.916C178.332 261.392 177.15 263.06 175.83 264.92C175.662 265.172 175.44 265.418 175.164 265.658C174.9 265.898 174.594 266.018 174.246 266.018H171.528V247.55H175.974V258.332C175.974 258.608 175.956 258.914 175.92 259.25C175.896 259.574 175.86 259.904 175.812 260.24C176.076 259.652 176.34 259.166 176.604 258.782C176.616 258.758 176.73 258.596 176.946 258.296C177.162 257.996 177.438 257.606 177.774 257.126C178.122 256.646 178.512 256.106 178.944 255.506C179.376 254.894 179.814 254.27 180.258 253.634C181.302 252.158 182.49 250.49 183.822 248.63C183.99 248.366 184.212 248.12 184.488 247.892C184.764 247.652 185.076 247.532 185.424 247.532H188.124ZM200.058 262.958C200.994 262.958 201.732 262.73 202.272 262.274C202.824 261.818 203.1 261.194 203.1 260.402C203.1 260.066 203.052 259.754 202.956 259.466C202.872 259.166 202.716 258.908 202.488 258.692C202.26 258.476 201.948 258.308 201.552 258.188C201.168 258.068 200.676 258.008 200.076 258.008H196.746V262.958H200.058ZM196.746 250.43V255.272H199.662C200.094 255.272 200.49 255.212 200.85 255.092C201.21 254.96 201.522 254.78 201.786 254.552C202.05 254.312 202.254 254.036 202.398 253.724C202.542 253.4 202.614 253.046 202.614 252.662C202.614 252.386 202.566 252.116 202.47 251.852C202.374 251.576 202.212 251.336 201.984 251.132C201.756 250.916 201.45 250.748 201.066 250.628C200.694 250.496 200.226 250.43 199.662 250.43H196.746ZM199.788 247.532C200.952 247.532 201.954 247.646 202.794 247.874C203.646 248.102 204.348 248.414 204.9 248.81C205.452 249.206 205.86 249.68 206.124 250.232C206.388 250.772 206.52 251.36 206.52 251.996C206.52 252.392 206.466 252.806 206.358 253.238C206.262 253.658 206.082 254.066 205.818 254.462C205.566 254.858 205.218 255.218 204.774 255.542C204.33 255.866 203.766 256.118 203.082 256.298C203.694 256.43 204.252 256.616 204.756 256.856C205.26 257.084 205.692 257.378 206.052 257.738C206.412 258.086 206.688 258.5 206.88 258.98C207.084 259.448 207.186 259.976 207.186 260.564C207.186 261.5 206.988 262.31 206.592 262.994C206.208 263.678 205.686 264.242 205.026 264.686C204.378 265.13 203.622 265.46 202.758 265.676C201.906 265.892 201.012 266 200.076 266H192.516V247.532H199.788ZM226.714 247.532V266H222.268V257.828H215.068V266H210.622V247.532H215.068V254.534H222.268V247.532H226.714ZM239.29 247.244C240.658 247.244 241.9 247.466 243.016 247.91C244.144 248.354 245.104 248.984 245.896 249.8C246.7 250.616 247.318 251.612 247.75 252.788C248.182 253.964 248.398 255.278 248.398 256.73C248.398 258.194 248.182 259.514 247.75 260.69C247.318 261.866 246.7 262.868 245.896 263.696C245.104 264.524 244.144 265.16 243.016 265.604C241.9 266.048 240.658 266.27 239.29 266.27C237.91 266.27 236.656 266.048 235.528 265.604C234.4 265.16 233.434 264.524 232.63 263.696C231.838 262.868 231.22 261.866 230.776 260.69C230.344 259.514 230.128 258.194 230.128 256.73C230.128 255.278 230.344 253.964 230.776 252.788C231.22 251.612 231.838 250.616 232.63 249.8C233.434 248.984 234.4 248.354 235.528 247.91C236.656 247.466 237.91 247.244 239.29 247.244ZM239.29 262.85C240.826 262.85 241.96 262.334 242.692 261.302C243.436 260.27 243.808 258.758 243.808 256.766C243.808 254.774 243.436 253.256 242.692 252.212C241.96 251.168 240.826 250.646 239.29 250.646C237.73 250.646 236.572 251.174 235.816 252.23C235.072 253.274 234.7 254.786 234.7 256.766C234.7 258.746 235.072 260.258 235.816 261.302C236.572 262.334 237.73 262.85 239.29 262.85ZM265.02 251.438C264.888 251.606 264.756 251.738 264.624 251.834C264.504 251.93 264.324 251.978 264.084 251.978C263.856 251.978 263.634 251.912 263.418 251.78C263.202 251.636 262.944 251.48 262.644 251.312C262.344 251.132 261.984 250.976 261.564 250.844C261.156 250.7 260.646 250.628 260.034 250.628C259.254 250.628 258.57 250.772 257.982 251.06C257.394 251.336 256.902 251.738 256.506 252.266C256.122 252.794 255.834 253.436 255.642 254.192C255.45 254.936 255.354 255.782 255.354 256.73C255.354 257.714 255.456 258.59 255.66 259.358C255.876 260.126 256.182 260.774 256.578 261.302C256.974 261.818 257.454 262.214 258.018 262.49C258.582 262.754 259.218 262.886 259.926 262.886C260.634 262.886 261.204 262.802 261.636 262.634C262.08 262.454 262.452 262.262 262.752 262.058C263.052 261.842 263.31 261.65 263.526 261.482C263.754 261.302 264.006 261.212 264.282 261.212C264.642 261.212 264.912 261.35 265.092 261.626L266.37 263.246C265.878 263.822 265.344 264.308 264.768 264.704C264.192 265.088 263.592 265.4 262.968 265.64C262.356 265.868 261.72 266.03 261.06 266.126C260.412 266.222 259.764 266.27 259.116 266.27C257.976 266.27 256.902 266.06 255.894 265.64C254.886 265.208 254.004 264.584 253.248 263.768C252.492 262.952 251.892 261.956 251.448 260.78C251.016 259.592 250.8 258.242 250.8 256.73C250.8 255.374 250.992 254.12 251.376 252.968C251.772 251.804 252.348 250.802 253.104 249.962C253.86 249.11 254.796 248.444 255.912 247.964C257.028 247.484 258.312 247.244 259.764 247.244C261.144 247.244 262.35 247.466 263.382 247.91C264.426 248.354 265.362 248.99 266.19 249.818L265.02 251.438ZM284.997 250.826H278.409V266H273.963V250.826H267.393V247.532H284.997V250.826ZM295.156 262.814C296.164 262.814 296.914 262.562 297.406 262.058C297.91 261.554 298.162 260.906 298.162 260.114C298.162 259.778 298.102 259.454 297.982 259.142C297.874 258.83 297.7 258.554 297.46 258.314C297.22 258.074 296.908 257.888 296.524 257.756C296.14 257.612 295.678 257.54 295.138 257.54H291.844V262.814H295.156ZM295.12 254.372C296.404 254.372 297.49 254.528 298.378 254.84C299.266 255.152 299.986 255.572 300.538 256.1C301.09 256.628 301.486 257.24 301.726 257.936C301.978 258.62 302.104 259.34 302.104 260.096C302.104 260.96 301.948 261.758 301.636 262.49C301.336 263.21 300.886 263.834 300.286 264.362C299.698 264.878 298.972 265.28 298.108 265.568C297.256 265.856 296.278 266 295.174 266H287.614V247.532H291.844V254.372H295.12Z" fill="black"/>
<g clip-path="url(#clip0_35816_55)">
<path d="M228.038 118.798L224.108 120.363L227.316 127.71H213.299V131.774H229.09L234.412 143.968L229.09 156.161H196.616C190.918 151.134 183.33 148.032 174.976 148.032C166.622 148.032 159.034 151.134 153.337 156.161H117.492V160.226H149.487C145.459 165.327 143.041 171.649 143.041 178.516C143.041 195.325 157.367 209 174.976 209C192.585 209 206.912 195.325 206.912 178.516C206.912 171.649 204.493 165.327 200.465 160.226H227.316L224.11 167.573L228.04 169.137L239.024 143.968L228.038 118.798ZM202.654 178.516C202.654 193.083 190.237 204.936 174.976 204.936C159.715 204.936 147.299 193.083 147.299 178.516C147.299 163.949 159.715 152.097 174.976 152.097C190.237 152.097 202.654 163.949 202.654 178.516Z" fill="black"/>
<path d="M126.03 147.199L163.545 127.801L168.263 132.305L159.513 133.349C156.192 133.745 153.686 136.454 153.686 139.649C153.686 143.151 156.671 146 160.339 146C161.653 146 162.981 145.931 164.288 145.791L183.069 143.799L185.794 133.39L176.809 121.383L188.34 119.81L192.532 133.806H204.783C208.304 133.806 211.17 131.071 211.17 127.71C211.17 124.348 208.304 121.613 204.783 121.613H202.268L200.376 112.579L192.032 103.024C189.945 100.63 186.877 99.258 183.616 99.258C183.107 99.258 182.6 99.3007 182.098 99.3678L173.147 95.0959L154.902 98.5792C151.729 99.1869 149.428 101.865 149.428 104.952C149.428 108.535 152.483 111.452 156.236 111.452H157.407L156.805 111.765L118.729 134.721C116.622 135.991 115.363 138.172 115.363 140.551V141.135C115.363 144.939 118.604 148.032 122.589 148.032C123.786 148.032 124.976 147.744 126.03 147.199ZM181.187 134.225L179.656 140.072L163.82 141.751C162.668 141.874 161.497 141.935 160.339 141.935C159.019 141.935 157.944 140.909 157.944 139.649C157.944 138.501 158.847 137.525 160.041 137.383L177.429 135.308L167.45 125.783L172.8 123.017L181.187 134.225ZM156.236 107.387C154.829 107.387 153.686 106.296 153.686 104.952C153.686 103.798 154.548 102.792 155.736 102.564L172.547 99.3556L176.767 101.37L168.174 105.845L157.974 107.357C157.842 107.377 157.714 107.387 157.582 107.387H156.236ZM119.621 141.135V140.551C119.621 139.576 120.139 138.68 121.003 138.157L158.962 115.266L180.405 104.103C181.387 103.593 182.496 103.323 183.616 103.323C185.613 103.323 187.486 104.162 188.762 105.625L196.416 114.39L198.781 125.677H204.783C205.958 125.677 206.912 126.588 206.912 127.71C206.912 128.831 205.958 129.742 204.783 129.742H195.743L191.417 115.286L174.299 117.619L124.001 143.626C123.569 143.848 123.079 143.968 122.589 143.968C120.952 143.968 119.621 142.698 119.621 141.135Z" fill="black"/>
<path d="M202.654 107.387C209.699 107.387 215.428 101.918 215.428 95.1935C215.428 88.4688 209.699 83 202.654 83C195.609 83 189.879 88.4688 189.879 95.1935C189.879 101.918 195.609 107.387 202.654 107.387ZM202.654 87.0645C207.35 87.0645 211.17 90.7104 211.17 95.1935C211.17 99.6767 207.35 103.323 202.654 103.323C197.957 103.323 194.137 99.6767 194.137 95.1935C194.137 90.7104 197.957 87.0645 202.654 87.0645Z" fill="black"/>
<path d="M113.234 156.161H108.976V160.226H113.234V156.161Z" fill="black"/>
<path d="M113.234 113.484H108.976V117.548H113.234V113.484Z" fill="black"/>
<path d="M138.783 113.484H117.492V117.548H138.783V113.484Z" fill="black"/>
<path d="M117.492 105.355H113.234V109.419H117.492V105.355Z" fill="black"/>
<path d="M145.17 105.355H121.75V109.419H145.17V105.355Z" fill="black"/>
<path d="M121.75 97.2258H117.492V101.29H121.75V97.2258Z" fill="black"/>
<path d="M147.299 97.2258H126.008V101.29H147.299V97.2258Z" fill="black"/>
<path d="M174.976 156.161C162.064 156.161 151.557 166.191 151.557 178.516V180.548H153.686H155.815H157.944V176.484H155.94C156.158 174.62 156.671 172.844 157.429 171.192L159.162 172.147L161.291 168.627L159.575 167.68C160.716 166.205 162.081 164.904 163.624 163.815L164.616 165.453L168.304 163.421L167.303 161.766C169.034 161.041 170.895 160.553 172.847 160.346V162.258H177.105V160.346C179.058 160.553 180.918 161.041 182.649 161.766L181.649 163.421L185.336 165.453L186.328 163.815C187.874 164.904 189.236 166.207 190.378 167.68L188.662 168.627L190.791 172.147L192.524 171.192C193.284 172.844 193.795 174.62 194.012 176.484H192.008V180.548H194.137H196.266H198.396V178.516C198.396 166.191 187.889 156.161 174.976 156.161Z" fill="black"/>
<path d="M173.241 187.499L176.704 189.86L187.347 175.636L183.884 173.275L173.241 187.499Z" fill="black"/>
<path d="M177.105 194.774H172.847V198.839H177.105V194.774Z" fill="black"/>
<path d="M185.621 194.774H181.363V198.839H185.621V194.774Z" fill="black"/>
<path d="M168.589 194.774H164.331V198.839H168.589V194.774Z" fill="black"/>
</g>
<defs>
<clipPath id="clip0_35816_55">
<rect width="132" height="126" fill="white" transform="translate(108 83)"/>
</clipPath>
</defs>
</svg>
