<svg width="104" height="126" viewBox="0 0 104 126" fill="none" xmlns="http://www.w3.org/2000/svg">
<path d="M52 65.1887C60.3547 65.1887 79.9976 55.5913 79.9976 32.5942C79.9976 29.3864 79.9158 26.2876 79.6388 23.3598C79.1841 17.5974 77.9478 12.4908 74.8691 8.57687C70.9208 3.25145 64.012 0 52 0C39.99 0 33.0819 3.25046 29.1336 8.5739C26.0532 12.4881 24.8159 17.5967 24.3612 23.3608C24.0845 26.2883 24.0024 29.3867 24.0024 32.5942C24.0024 55.5913 43.6453 65.1887 52 65.1887ZM41.6222 10.7788C42.2324 9.71204 43.4012 9.04859 44.6721 9.04727C46.1377 9.04727 47.392 9.91501 47.9059 11.1378H56.0902C56.2627 10.7252 56.521 10.3464 56.8594 10.0228C57.5149 9.3947 58.3887 9.04793 59.3175 9.04694C60.5926 9.04661 61.7614 9.70642 62.3733 10.7692C62.4093 10.8313 62.4079 10.906 62.3698 10.9672C62.3324 11.0284 62.2635 11.0657 62.1897 11.0657L59.0858 11.0707C59.0311 11.1956 58.9268 11.5424 58.9282 12.3688C58.9296 13.1952 59.0352 13.5416 59.0906 13.6663L62.1946 13.6616C62.269 13.662 62.3366 13.6993 62.3747 13.7602C62.4131 13.821 62.4138 13.8963 62.3788 13.9585C61.7679 15.0246 60.5991 15.6887 59.3282 15.69L59.3234 15.6893C57.8616 15.6893 56.6083 14.8223 56.0944 13.5988H47.9101C47.7376 14.0114 47.48 14.3905 47.1416 14.7138C46.4861 15.3419 45.6123 15.689 44.6829 15.6907C44.6829 15.6903 44.6773 15.6907 44.6773 15.6907C43.4084 15.6907 42.239 15.0309 41.6267 13.9681C41.5907 13.9059 41.5928 13.8306 41.6302 13.7697C41.6672 13.7089 41.7365 13.6709 41.8106 13.6709L44.9138 13.6663C44.9686 13.5416 45.0735 13.1949 45.0714 12.3685C45.07 11.5417 44.9644 11.1953 44.909 11.0707L41.805 11.0756V11.076C41.7313 11.0753 41.6631 11.0379 41.625 10.9771C41.5879 10.9163 41.5865 10.8416 41.6222 10.7788ZM28.1678 27.6079C28.4902 28.2816 29.8605 30.8706 31.9817 31.1132C34.42 31.3922 38.4673 22.8702 52 22.8497C65.5323 22.8706 69.5799 31.3922 72.0183 31.1132C74.1394 30.8703 75.5098 28.2813 75.8322 27.6079C75.898 29.2581 75.9219 30.9284 75.9219 32.5942C75.9219 43.8354 70.7221 50.8004 66.3596 54.6638C60.863 59.5317 54.7608 61.2986 52 61.2986C49.2392 61.2986 43.1366 59.5317 37.6403 54.6638C33.2779 50.8004 28.0781 43.8354 28.0781 32.5942C28.0781 30.9284 28.102 29.2581 28.1678 27.6079Z" fill="black"/>
<path d="M103.978 98.617C102.549 90.1333 99.6066 79.2051 93.7041 75.321C89.6752 72.6695 75.6168 65.4998 69.6136 62.4385L69.5034 62.3826C68.8171 62.0325 67.979 62.1026 67.3667 62.5614C64.2209 64.9187 60.7751 66.5074 57.125 67.2829C56.4802 67.4201 55.951 67.8574 55.7166 68.4468L51.9997 77.7989L48.2827 68.4468C48.0483 67.8574 47.5191 67.4198 46.8743 67.2829C43.2242 66.5074 39.7785 64.9187 36.6326 62.5614C36.0203 62.1026 35.1823 62.0322 34.4959 62.3826C28.5623 65.4093 14.3276 72.7273 10.3129 75.3097C3.51833 79.6795 0.547697 95.4918 0.0213097 98.6173C-0.0309827 98.9274 -0.000853218 99.2444 0.108926 99.5406C0.307707 100.076 4.51153 110.44 30.7842 114.221C33.0805 118.053 36.5107 121.239 40.6124 123.311C44.0969 125.071 48.0441 126.001 52.0281 126.001C53.5882 126.001 55.15 125.858 56.671 125.575C61.9287 124.599 66.7842 121.932 70.3432 118.065C71.4369 116.877 72.3944 115.587 73.2082 114.222C99.4868 110.441 103.692 100.076 103.89 99.5406C104.001 99.2441 104.031 98.9267 103.978 98.617ZM72.8962 103.81C72.6399 108.248 70.7965 112.529 67.7231 115.867C64.6846 119.169 60.5258 121.467 56.0051 122.307C54.6926 122.551 53.36 122.671 52.0284 122.671C48.6374 122.671 45.255 121.889 42.2442 120.368C38.2062 118.328 34.9191 115.025 32.9985 111.067C31.0023 106.953 30.5428 102.22 31.7022 97.8233C32.8222 93.5719 35.4403 89.739 39.0401 87.021C42.7131 84.2479 47.3165 82.7194 51.9993 82.7194C54.0928 82.7194 56.1841 83.0179 58.1833 83.6096C62.5603 84.9038 66.4255 87.5946 69.0764 91.1594C71.8022 94.8251 73.1553 99.3221 72.8962 103.81Z" fill="black"/>
<path d="M55.2827 102.696C57.2393 103.066 59.1845 103.622 61.0089 104.394C62.7716 105.141 64.3511 106.194 65.9901 107.148C66.1027 107.215 66.2166 107.279 66.3306 107.343C66.8497 105.884 67.1354 104.323 67.1354 102.696C67.1354 101.07 66.8497 99.5084 66.3306 98.0496C64.6513 99.0062 63.0548 100.096 61.2748 100.884C59.3781 101.723 57.3321 102.309 55.2827 102.696Z" fill="black"/>
<path d="M65.9902 107.148C65.6265 106.937 66.1858 107.263 65.9902 107.148V107.148Z" fill="black"/>
<path d="M42.9912 104.394C44.8158 103.622 46.7604 103.066 48.7174 102.696C46.6378 102.304 44.5579 101.707 42.6365 100.845C40.8918 100.061 39.321 98.9904 37.6694 98.0493C37.1503 99.5081 36.8646 101.07 36.8646 102.696C36.8646 104.323 37.1503 105.885 37.6694 107.344C37.783 107.279 37.8973 107.215 38.0095 107.148C39.6489 106.194 41.2295 105.141 42.9912 104.394Z" fill="black"/>
<path d="M38.0095 107.148C37.8145 107.263 38.3731 106.937 38.0095 107.148V107.148Z" fill="black"/>
<path d="M54.7819 88.4971C54.8318 90.3872 55.0489 92.2741 54.8851 94.1643C54.7074 96.2102 54.2198 98.2623 53.5279 100.204C54.9547 98.6802 56.5851 97.2736 58.3599 96.1249C60.0104 95.0572 61.8466 94.3101 63.6023 93.4225C61.3926 90.9059 58.3014 89.1215 54.7819 88.4971Z" fill="black"/>
<path d="M50.4721 100.203C49.7798 98.2622 49.2926 96.21 49.1146 94.1638C48.9515 92.2736 49.1686 90.3868 49.2181 88.4966C45.6986 89.121 42.6078 90.9054 40.3977 93.4217C42.1829 94.3245 44.0495 95.0818 45.7215 96.177C47.4623 97.3181 49.0654 98.7018 50.4721 100.203Z" fill="black"/>
<path d="M49.1146 111.229C49.2929 109.184 49.7778 107.13 50.4721 105.19C49.0439 106.713 47.4142 108.12 45.6394 109.268C43.9896 110.337 42.1541 111.084 40.3977 111.971C42.6075 114.487 45.6986 116.271 49.2178 116.896C49.1683 115.006 48.9515 113.119 49.1146 111.229Z" fill="black"/>
<path d="M53.5283 105.19C54.2226 107.13 54.7078 109.184 54.8854 111.229C55.0492 113.119 54.8325 115.006 54.7822 116.896C58.3014 116.272 61.3926 114.487 63.6024 111.971C61.8178 111.068 59.9516 110.311 58.28 109.216C56.5377 108.075 54.9357 106.691 53.5283 105.19Z" fill="black"/>
</svg>
